<svg width="182" height="150" viewBox="0 0 182 150" fill="none" xmlns="http://www.w3.org/2000/svg">
<path d="M160.74 73.1186C160.74 93.3242 152.487 111.538 139.254 124.629C126.305 137.577 108.376 145.403 88.5974 145.403C68.961 145.403 51.0322 137.435 37.9413 124.629C24.708 111.538 16.4551 93.3242 16.4551 73.1186C16.4551 33.1344 48.7555 0.833984 88.5974 0.833984C128.439 0.833984 160.74 33.2767 160.74 73.1186Z" fill="#EAEEF9"/>
<g filter="url(#filter0_d_115_524)">
<path d="M153.082 31.687V110.524C153.082 113.805 150.455 116.405 147.235 116.405H28.485C25.2652 116.405 22.5962 113.763 22.5962 110.524V31.687C22.5962 28.4483 25.2228 25.8062 28.485 25.8062H147.235C150.455 25.8062 153.082 28.4483 153.082 31.687Z" fill="url(#paint0_linear_115_524)"/>
</g>
<path d="M153.082 31.687V40.5082H22.5962V31.687C22.5962 28.4483 25.2228 25.8062 28.485 25.8062H147.235C150.455 25.8062 153.082 28.4483 153.082 31.687Z" fill="#D5DDEA"/>
<path d="M30.8153 35.3518C32.032 35.3518 33.0183 34.3597 33.0183 33.1359C33.0183 31.912 32.032 30.9199 30.8153 30.9199C29.5986 30.9199 28.6123 31.912 28.6123 33.1359C28.6123 34.3597 29.5986 35.3518 30.8153 35.3518Z" fill="#989FB0"/>
<path d="M38.0175 35.3518C39.2341 35.3518 40.2205 34.3597 40.2205 33.1359C40.2205 31.912 39.2341 30.9199 38.0175 30.9199C36.8008 30.9199 35.8145 31.912 35.8145 33.1359C35.8145 34.3597 36.8008 35.3518 38.0175 35.3518Z" fill="#989FB0"/>
<path d="M45.1771 35.3518C46.3938 35.3518 47.3801 34.3597 47.3801 33.1359C47.3801 31.912 46.3938 30.9199 45.1771 30.9199C43.9604 30.9199 42.9741 31.912 42.9741 33.1359C42.9741 34.3597 43.9604 35.3518 45.1771 35.3518Z" fill="#989FB0"/>
<path d="M49.8374 94.2026H125.841" stroke="#D5DDEA" stroke-width="2" stroke-miterlimit="10" stroke-linecap="round" stroke-linejoin="round"/>
<path d="M61.8267 102.342H113.851" stroke="#D5DDEA" stroke-width="2" stroke-miterlimit="10" stroke-linecap="round" stroke-linejoin="round"/>
<path d="M73.4451 81V76.17H76.4551V71.795H73.4451V57.655H66.5851L57.3101 72.25V76.17H68.4751V81H73.4451ZM68.4751 71.795H62.1751L68.4751 62.065V71.795ZM88.1688 81.42C94.8538 81.42 97.8288 75.365 97.8288 69.345C97.8288 63.325 94.8538 57.305 88.1688 57.305C81.4838 57.305 78.5088 63.325 78.5088 69.345C78.5088 75.365 81.4838 81.42 88.1688 81.42ZM88.1688 77.01C84.8438 77.01 83.5838 73.65 83.5838 69.345C83.5838 65.04 84.8438 61.715 88.1688 61.715C91.5288 61.715 92.7538 65.04 92.7538 69.345C92.7538 73.65 91.4938 77.01 88.1688 77.01ZM108.928 81.42C114.528 81.42 118.133 78.585 118.133 74.56C118.133 71.06 115.053 69.205 112.673 68.96C115.263 68.505 117.783 66.58 117.783 63.64C117.783 59.755 114.423 57.305 108.963 57.305C104.868 57.305 101.928 58.88 100.038 61.015L102.523 64.13C104.168 62.555 106.198 61.715 108.473 61.715C110.888 61.715 112.813 62.625 112.813 64.48C112.813 66.195 111.063 66.965 108.473 66.965C107.598 66.965 105.988 66.965 105.568 66.93V71.41C105.918 71.375 107.493 71.34 108.473 71.34C111.728 71.34 113.163 72.18 113.163 74.035C113.163 75.785 111.588 77.01 108.753 77.01C106.478 77.01 103.923 76.03 102.348 74.35L99.7229 77.675C101.438 79.775 104.658 81.42 108.928 81.42Z" fill="#9AA2B3"/>
<path d="M141 2H162.2C163.5 2 164.7 2.49587 165.6 3.38843L180.6 18.2645C181.5 19.157 182 20.3471 182 21.6364V42.562C182 43.8512 181.5 45.0413 180.6 45.9339L165.8 60.6116C164.9 61.5041 163.7 62 162.4 62H141C139.7 62 138.5 61.5041 137.6 60.6116L122.4 45.5372C121.5 44.6446 121 43.4545 121 42.1653V21.6364C121 20.3471 121.5 19.157 122.4 18.2645L137.5 3.38843C138.5 2.49587 139.7 2 141 2Z" fill="url(#paint1_linear_115_524)"/>
<path d="M155.156 13.6286V23.6433C155.156 24.3109 155.156 24.9786 155.056 25.7416L153.958 32.895C153.859 33.4673 153.36 33.9441 152.661 33.9441H150.466C149.867 33.9441 149.268 33.4673 149.168 32.895L148.071 25.7416C147.971 25.074 147.971 24.4063 147.971 23.6433V13.6286C147.971 12.9609 148.569 12.3887 149.268 12.3887H153.958C154.557 12.4841 155.156 12.9609 155.156 13.6286Z" fill="white"/>
<path d="M153.959 49.0131H149.069C148.27 49.0131 147.572 48.3146 147.572 47.5162V42.6263C147.572 41.828 148.27 41.1294 149.069 41.1294H153.959C154.757 41.1294 155.455 41.828 155.455 42.6263V47.5162C155.455 48.3146 154.757 49.0131 153.959 49.0131Z" fill="white"/>
<defs>
<filter id="filter0_d_115_524" x="0.596191" y="14.8062" width="174.485" height="134.599" filterUnits="userSpaceOnUse" color-interpolation-filters="sRGB">
<feFlood flood-opacity="0" result="BackgroundImageFix"/>
<feColorMatrix in="SourceAlpha" type="matrix" values="0 0 0 0 0 0 0 0 0 0 0 0 0 0 0 0 0 0 127 0" result="hardAlpha"/>
<feOffset dy="11"/>
<feGaussianBlur stdDeviation="11"/>
<feColorMatrix type="matrix" values="0 0 0 0 0.397708 0 0 0 0 0.47749 0 0 0 0 0.575 0 0 0 0.27 0"/>
<feBlend mode="normal" in2="BackgroundImageFix" result="effect1_dropShadow_115_524"/>
<feBlend mode="normal" in="SourceGraphic" in2="effect1_dropShadow_115_524" result="shape"/>
</filter>
<linearGradient id="paint0_linear_115_524" x1="87.7964" y1="23.7105" x2="87.7964" y2="117.381" gradientUnits="userSpaceOnUse">
<stop stop-color="#FDFEFF"/>
<stop offset="0.9964" stop-color="#ECF0F5"/>
</linearGradient>
<linearGradient id="paint1_linear_115_524" x1="120.972" y1="32.0065" x2="182.011" y2="32.0065" gradientUnits="userSpaceOnUse">
<stop stop-color="#B0BACC"/>
<stop offset="1" stop-color="#969EAE"/>
</linearGradient>
</defs>
</svg>
